<svg id="圖層_1" data-name="圖層 1" xmlns="http://www.w3.org/2000/svg" width="100pt" height="27pt" viewBox="0 0 50 13.43"><path d="M439,413.23v-12.6h.61v12.6Z" transform="translate(-438.96 -399.88)"/><path d="M449.4,413.3a6.8,6.8,0,0,1-2.58-.47,6.42,6.42,0,0,1-2.07-1.34,6.17,6.17,0,0,1-1.37-2,6.91,6.91,0,0,1,0-5.06,6.13,6.13,0,0,1,1.37-2,6.26,6.26,0,0,1,2.07-1.34,6.81,6.81,0,0,1,2.58-.48,7.13,7.13,0,0,1,2.41.41,5.33,5.33,0,0,1,2,1.26l-.38.4a5.05,5.05,0,0,0-1.84-1.16,6.53,6.53,0,0,0-2.14-.35,6.21,6.21,0,0,0-2.34.44,5.62,5.62,0,0,0-3.12,3.08,6.21,6.21,0,0,0,0,4.59,5.64,5.64,0,0,0,1.24,1.84,5.86,5.86,0,0,0,1.88,1.24,6.21,6.21,0,0,0,2.34.44,6.53,6.53,0,0,0,2.14-.35,5.11,5.11,0,0,0,1.84-1.18l.38.39a5.23,5.23,0,0,1-2,1.27A6.9,6.9,0,0,1,449.4,413.3Z" transform="translate(-438.96 -399.88)"/><path d="M457.62,412.67h7.9v.56H457v-12.6h8.26v.56h-7.65Zm-.11-6.12h6.95v.56h-6.95Z" transform="translate(-438.96 -399.88)"/><path d="M468.62,413.29a.58.58,0,0,1-.41-.17.55.55,0,0,1-.18-.43.51.51,0,0,1,.18-.42.58.58,0,0,1,.41-.17.57.57,0,0,1,.42.17.54.54,0,0,1,.17.42.58.58,0,0,1-.59.6Z" transform="translate(-438.96 -399.88)"/><path d="M474.58,413.29a6.61,6.61,0,0,1-2.16-.35,3.9,3.9,0,0,1-1.53-.9l.29-.46a4.7,4.7,0,0,0,1.42.82,5.32,5.32,0,0,0,2,.36,3.68,3.68,0,0,0,2.25-.54,1.67,1.67,0,0,0,.7-1.4,1.41,1.41,0,0,0-.34-1,2.27,2.27,0,0,0-.9-.56,8.32,8.32,0,0,0-1.24-.31l-1.36-.27a5.65,5.65,0,0,1-1.24-.42,2.23,2.23,0,0,1-.9-.73,2,2,0,0,1-.34-1.24,2.14,2.14,0,0,1,.37-1.22,2.59,2.59,0,0,1,1.12-.91,4.69,4.69,0,0,1,1.93-.35,6.22,6.22,0,0,1,1.74.26,3.85,3.85,0,0,1,1.39.69l-.3.47a3.87,3.87,0,0,0-1.31-.67,5.67,5.67,0,0,0-1.54-.21,3.22,3.22,0,0,0-2.12.56,1.69,1.69,0,0,0-.67,1.36,1.55,1.55,0,0,0,.34,1,2.1,2.1,0,0,0,.9.58,8.28,8.28,0,0,0,1.24.33q.68.12,1.35.27a6.12,6.12,0,0,1,1.23.39,2.35,2.35,0,0,1,.9.71,1.94,1.94,0,0,1,.34,1.22,2.17,2.17,0,0,1-.4,1.29,2.52,2.52,0,0,1-1.19.87A5.54,5.54,0,0,1,474.58,413.29Z" transform="translate(-438.96 -399.88)"/><path d="M485.2,403.82a4.17,4.17,0,0,1,2,.45,3.18,3.18,0,0,1,1.3,1.32,4.53,4.53,0,0,1,.47,2.15v5.49h-.6v-5.45a3.51,3.51,0,0,0-.84-2.54,3.17,3.17,0,0,0-2.38-.86,4.09,4.09,0,0,0-2,.46,3.17,3.17,0,0,0-1.3,1.34,4.26,4.26,0,0,0-.45,2v5h-.59V399.88h.59v6.64l-.09-.16a3.85,3.85,0,0,1,1.43-1.86A4.34,4.34,0,0,1,485.2,403.82Z" transform="translate(-438.96 -399.88)"/></svg>